<svg xmlns="http://www.w3.org/2000/svg" xmlns:xlink="http://www.w3.org/1999/xlink" viewBox="0,0,256,256" width="100px" height="100px" fill-rule="nonzero"><defs><linearGradient x1="0.029" y1="40.428" x2="48.667" y2="9.662" gradientUnits="userSpaceOnUse" id="color-1"><stop offset="0.002" stop-color="#2e094c"></stop><stop offset="0.003" stop-color="#ff61d3"></stop><stop offset="0.075" stop-color="#f760d6"></stop><stop offset="0.19" stop-color="#e05cde"></stop><stop offset="0.333" stop-color="#ba56ec"></stop><stop offset="0.497" stop-color="#874eff"></stop><stop offset="0.499" stop-color="#864eff"></stop><stop offset="0.506" stop-color="#8451ff"></stop><stop offset="0.678" stop-color="#4f90ff"></stop><stop offset="0.824" stop-color="#28bfff"></stop><stop offset="0.936" stop-color="#10dbff"></stop><stop offset="1" stop-color="#07e6ff"></stop></linearGradient></defs><g fill="none" fill-rule="nonzero" stroke="none" stroke-width="1" stroke-linecap="butt" stroke-linejoin="miter" stroke-miterlimit="10" stroke-dasharray="" stroke-dashoffset="0" font-family="none" font-weight="none" font-size="none" text-anchor="none" style="mix-blend-mode: normal"><g transform="scale(5.33333,5.33333)"><path d="M46.332,23.147l-2.016,-0.999c-1.464,-5.31 -5.201,-10.386 -10.316,-13.386v-0.981c0,-0.459 -0.312,-0.859 -0.757,-0.97l-5.303,-1.326c-1.288,-0.322 -2.612,-0.485 -3.94,-0.485c-1.328,0 -2.652,0.163 -3.94,0.485l-5.302,1.326c-0.446,0.111 -0.758,0.511 -0.758,0.97v0.982c-5.115,2.999 -8.852,8.076 -10.316,13.385l-2.016,0.999c-1.022,0.506 -1.668,1.548 -1.668,2.688v1.969c0,0.222 0.025,0.444 0.074,0.66l1.222,5.416c0.412,1.825 2.032,3.12 3.902,3.12h1.711c3.617,3.796 9.557,6 17.092,6c7.535,0 13.475,-2.204 17.092,-6h1.711c1.87,0 3.49,-1.295 3.902,-3.119l1.222,-5.416c0.047,-0.217 0.072,-0.439 0.072,-0.661v-1.969c0,-1.14 -0.646,-2.182 -1.668,-2.688zM24,38c-3.753,0 -16,-0.793 -16,-11c0,-7.399 6.989,-16 16,-16c9.011,0 16,8.601 16,16c0,10.207 -12.247,11 -16,11z" fill="url(#color-1)"></path><path d="M24,10c-9.574,0 -17,9.138 -17,17c0,11.135 13.012,12 17,12c3.988,0 17,-0.865 17,-12c0,-7.862 -7.426,-17 -17,-17z" fill="#000000" opacity="0.05"></path><path d="M24,10.5c-9.292,0 -16.5,8.87 -16.5,16.5c0,10.671 12.629,11.5 16.5,11.5c3.871,0 16.5,-0.829 16.5,-11.5c0,-7.63 -7.208,-16.5 -16.5,-16.5z" fill="#000000" opacity="0.07"></path><path d="M24,11c-9.011,0 -16,8.601 -16,16c0,10.207 12.247,11 16,11c3.753,0 16,-0.793 16,-11c0,-7.399 -6.989,-16 -16,-16z" fill="#ffffff"></path><path d="M24,34c-3.281,0 -6.193,-1.716 -7.418,-4.372l2.724,-1.257c0.725,1.573 2.611,2.629 4.694,2.629c2.126,0 4.026,-1.085 4.727,-2.701l2.752,1.194c-1.169,2.696 -4.175,4.507 -7.479,4.507z" fill="#000000"></path></g></g></svg>